# xmcd
#
# Track frame offsets: 
#        150
#        16560
#        32327
#        58903
#        71794
#        94776
#        107164
#        126190
#        144420
#        165275
#        183074
#        210853
#
# Disc length: 3013 seconds
#
# Revision: 7
# Processed by: cddbd v1.5.2PL0 Copyright (c) Steve Scherf et al.
# Submitted via: ExactAudioCopy v0.99pb4
#
DISCID=910bc30c,a00bc30c
DTITLE=GUNDERMANN and SEILSCHAFT - Engel über dem Revier
DYEAR=1997
DGENRE=Ostrock
TTITLE0=heyaheya
TTITLE1=owehoweh
TTITLE2=wer hat ein helles licht bei der nacht
TTITLE3=weisstunoch
TTITLE4=morgen, morgen
TTITLE5=leine los
TTITLE6=streunende hunde
TTITLE7=brunhilde
TTITLE8=und musst du weinen
TTITLE9=vater
TTITLE10=engel über dem revier
TTITLE11=fliegender fisch II
EXTD=YEAR: 1998
EXTT0=
EXTT1=
EXTT2=
EXTT3=
EXTT4=
EXTT5=
EXTT6=
EXTT7=
EXTT8=
EXTT9=
EXTT10=
EXTT11=
PLAYORDER=
